#!OML:ASF E:\motion texture\Top Level 1\Subject 1\Session 1\male.ASF
:FULLY-SPECIFIED
:DEGREES
254
root -4.4139 17.7093 3.99393 478.996 -77.0259 -479
lowerback 1.59131 3.672 10.7306
upperback -1.24486 5.10858 2.84365
thorax -1.51942 2.38509 -3.13493
lowerneck -16.7407 -6.7634 -8.03823
upperneck 12.4508 -8.76714 8.82488
head 7.31877 -3.8498 3.17157
rclavicle -1.2921e-015 -1.5704e-014
rhumerus -1.75655 20.4688 -80.9802
rradius 76.7528
rwrist -7.88306
rhand -7.75187 -11.8596
rfingers 7.12502
rthumb 18.1476 -41.0331
lclavicle -1.2921e-015 -1.5704e-014
lhumerus -58.6522 -2.64744 78.3186
lradius 49.8906
lwrist -2.14479
lhand -7.02028 2.46548
lfingers 7.12502
lthumb 18.8513 31.572
rfemur 7.58652 4.42736 38.3835
rtibia 24.9935
rfoot -17.166 -2.15989
rtoes 4.03234
lfemur -72.0198 12.209 -11.5325
ltibia 78.9368
lfoot 562.818 176.934
ltoes 1.49604
255
root -4.57277 17.6911 4.00598 480.499 -76.9934 -480.142
lowerback 1.21987 3.7106 10.6526
upperback -1.36687 5.11583 2.79732
thorax -1.43931 2.38964 -3.11841
lowerneck -16.718 -6.68748 -7.99195
upperneck 12.436 -8.67491 8.82273
head 7.29982 -3.80473 3.17603
rclavicle -2.78174e-014 -7.18607e-014
rhumerus -2.84932 20.5655 -81.3518
rradius 76.6977
rwrist -7.83284
rhand -7.72113 -11.8371
rfingers 7.12502
rthumb 18.1771 -41.0077
lclavicle -2.78174e-014 -7.18607e-014
lhumerus -58.4366 -2.69863 78.777
lradius 50.303
lwrist -1.91019
lhand -7.23241 2.29156
lfingers 7.12502
lthumb 18.6473 31.4178
rfemur 7.85839 4.62789 38.1377
rtibia 24.8523
rfoot -17.1827 -1.9068
rtoes 3.50631
lfemur -69.761 12.5419 -11.3962
ltibia 76.6914
lfoot 563.118 176.585
ltoes 1.93525
256
root -4.73816 17.6731 4.01812 482.043 -76.9842 -481.33
lowerback 0.803878 3.74512 10.5365
upperback -1.49858 5.11221 2.74599
thorax -1.34831 2.3895 -3.08354
lowerneck -16.677 -6.60512 -7.9434
upperneck 12.4495 -8.57754 8.81662
head 7.28627 -3.75768 3.17978
rclavicle -3.07184e-014 -5.14852e-014
rhumerus -4.0452 20.6588 -81.7539
rradius 76.6313
rwrist -7.79555
rhand -7.70682 -11.8236
rfingers 7.12502
rthumb 18.1909 -40.993
lclavicle -3.07184e-014 -5.14852e-014
lhumerus -58.2192 -2.73167 79.2414
lradius 50.7119
lwrist -1.66437
lhand -7.42116 2.21206
lfingers 7.12502
lthumb 18.4657 31.3556
rfemur 8.13634 4.81534 37.8466
rtibia 24.7409
rfoot -17.156 -1.62458
rtoes 2.98944
lfemur -67.3555 12.784 -11.2234
ltibia 74.3639
lfoot 563.288 176.391
ltoes 2.43357
257
root -4.90921 17.6557 4.03001 483.566 -76.9987 -482.502
lowerback 0.352783 3.77196 10.3853
upperback -1.64226 5.09497 2.69082
thorax -1.25427 2.3827 -3.03168
lowerneck -16.6157 -6.5163 -7.89333
upperneck 12.4886 -8.47653 8.81608
head 7.27752 -3.70871 3.18592
rclavicle -9.34288e-015 -2.5842e-015
rhumerus -5.34617 20.7337 -82.1861
rradius 76.5474
rwrist -7.74835
rhand -7.71615 -11.8321
rfingers 7.12502
rthumb 18.1819 -41.0024
lclavicle -9.34288e-015 -2.5842e-015
lhumerus -57.9862 -2.75103 79.7129
lradius 51.1052
lwrist -1.39736
lhand -7.53616 2.28636
lfingers 7.12502
lthumb 18.3551 31.4404
rfemur 8.39969 4.98526 37.5209
rtibia 24.6891
rfoot -17.0739 -1.32319
rtoes 2.4774
lfemur -64.798 12.8927 -10.9945
ltibia 71.9357
lfoot 563.375 176.219
ltoes 2.95256
258
root -5.08617 17.6389 4.04213 485.054 -77.0454 -483.649
lowerback -0.133804 3.78726 10.1994
upperback -1.79345 5.05914 2.63125
thorax -1.15275 2.36709 -2.96372
lowerneck -16.5436 -6.42273 -7.83684
upperneck 12.558 -8.37311 8.81081
head 7.27609 -3.65872 3.18989
rclavicle 9.19379e-015 -2.57426e-014
rhumerus -6.75245 20.7784 -82.6469
rradius 76.4461
rwrist -7.66861
rhand -7.73772 -11.8545
rfingers 7.12502
rthumb 18.1612 -41.0267
lclavicle 9.19379e-015 -2.57426e-014
lhumerus -57.7275 -2.74945 80.1935
lradius 51.4716
lwrist -1.13484
lhand -7.60207 2.47632
lfingers 7.12502
lthumb 18.2917 31.6363
rfemur 8.63391 5.11715 37.1449
rtibia 24.7309
rfoot -16.9264 -0.990858
rtoes 1.90455
lfemur -62.0861 12.8321 -10.7194
ltibia 69.3989
lfoot 563.429 175.972
ltoes 3.384
259
root -5.26898 17.6231 4.05485 486.491 -77.1207 -484.769
lowerback -0.650453 3.79101 9.9899
upperback -1.94296 5.00535 2.56829
thorax -1.03618 2.34339 -2.88491
lowerneck -16.4621 -6.32657 -7.77054
upperneck 12.6519 -8.26968 8.7969
head 7.28025 -3.60903 3.18954
rclavicle -2.32454e-014 -5.45664e-014
rhumerus -8.25437 20.7761 -83.13
rradius 76.3217
rwrist -7.54498
rhand -7.75485 -11.8645
rfingers 7.12502
rthumb 18.1447 -41.0382
lclavicle -2.32454e-014 -5.45664e-014
lhumerus -57.4277 -2.73506 80.6942
lradius 51.8043
lwrist -0.889617
lhand -7.63396 2.74873
lfingers 7.12502
lthumb 18.261 31.9116
rfemur 8.82264 5.18979 36.7094
rtibia 24.912
rfoot -16.6986 -0.603465
rtoes 1.24505
lfemur -59.1993 12.5715 -10.3964
ltibia 66.7314
lfoot 563.459 175.632
ltoes 3.54443
260
root -5.4576 17.6084 4.06873 487.894 -77.2099 -485.898
lowerback -1.17613 3.78605 9.77303
upperback -2.08537 4.94009 2.50574
thorax -0.908857 2.31448 -2.80151
lowerneck -16.3746 -6.23 -7.70925
upperneck 12.7706 -8.16785 8.78732
head 7.29205 -3.55993 3.19125
rclavicle -1.76546e-014 4.02539e-014
rhumerus -9.85276 20.7242 -83.626
rradius 76.1788
rwrist -7.38163
rhand -7.77166 -11.8706
rfingers 7.12502
rthumb 18.1285 -41.0458
lclavicle -1.76546e-014 4.02539e-014
lhumerus -57.0847 -2.71201 81.2247
lradius 52.109
lwrist -0.683451
lhand -7.71687 2.97057
lfingers 7.12502
lthumb 18.1813 32.1409
rfemur 8.95266 5.19541 36.2109
rtibia 25.2845
rfoot -16.3657 -0.135363
rtoes 0.479118
lfemur -56.111 12.1007 -10.0213
ltibia 63.9214
lfoot 563.132 175.2
ltoes 2.52838
261
root -5.6523 17.5951 4.08435 489.275 -77.2886 -487.06
lowerback -1.69788 3.77838 9.5735
upperback -2.21922 4.87265 2.44828
thorax -0.773937 2.2844 -2.72289
lowerneck -16.2658 -6.13335 -7.65143
upperneck 12.9091 -8.06787 8.77531
head 7.30688 -3.51255 3.19286
rclavicle 1.86982e-015 -7.28546e-014
rhumerus -11.5524 20.6126 -84.131
rradius 76.0141
rwrist -7.18065
rhand -7.78319 -11.8552
rfingers 7.12502
rthumb 18.1174 -41.0315
lclavicle 1.86982e-015 -7.28546e-014
lhumerus -56.7054 -2.6932 81.7952
lradius 52.3913
lwrist -0.518565
lhand -7.90665 3.08412
lfingers 7.12502
lthumb 17.9987 32.2713
rfemur 8.9936 5.10806 35.641
rtibia 25.9155
rfoot -15.8971 0.468634
rtoes -0.362926
lfemur -52.8037 11.4341 -9.60295
ltibia 60.9853
lfoot 562.031 174.559
ltoes 0.556005
262
root -5.85303 17.5827 4.10231 490.628 -77.3326 -488.251
lowerback -2.20791 3.77376 9.41907
upperback -2.34595 4.81074 2.40035
thorax -0.634754 2.25631 -2.65993
lowerneck -16.1378 -6.03761 -7.59512
upperneck 13.0729 -7.97081 8.75514
head 7.32658 -3.46769 3.19197
rclavicle -6.20581e-015 7.65321e-015
rhumerus -13.3504 20.4394 -84.6379
rradius 75.8228
rwrist -6.95937
rhand -7.80211 -11.8141
rfingers 7.12502
rthumb 18.0992 -40.992
lclavicle -6.20581e-015 7.65321e-015
lhumerus -56.2973 -2.68702 82.4164
lradius 52.6629
lwrist -0.378059
lhand -8.2152 3.09314
lfingers 7.12502
lthumb 17.7018 32.3074
rfemur 8.90516 4.90982 34.9987
rtibia 26.8713
rfoot -15.2473 1.25499
rtoes -1.20054
lfemur -49.3154 10.6316 -9.19062
ltibia 58.0042
lfoot 559.737 173.65
ltoes -2.10526
263
root -6.05804 17.5707 4.12315 491.911 -77.3212 -489.416
lowerback -2.69583 3.77443 9.33446
upperback -2.478 4.75776 2.36689
thorax -0.508499 2.23036 -2.62201
lowerneck -15.9838 -5.93775 -7.535
upperneck 13.2662 -7.87124 8.72303
head 7.35051 -3.42303 3.18731
rclavicle -2.75627e-014 -1.43125e-014
rhumerus -15.2413 20.2138 -85.1374
rradius 75.599
rwrist -6.74732
rhand -7.84359 -11.7469
rfingers 7.12502
rthumb 18.0593 -40.9285
lclavicle -2.75627e-014 -1.43125e-014
lhumerus -55.8706 -2.69335 83.085
lradius 52.9302
lwrist -0.265065
lhand -8.54198 3.13442
lfingers 7.12502
lthumb 17.3873 32.3767
rfemur 8.61586 4.59632 34.2944
rtibia 28.236
rfoot -14.3449 2.24155
rtoes -1.90649
lfemur -45.7438 9.77303 -8.8401
ltibia 55.0616
lfoot 556.14 172.594
ltoes -4.77135
264
root -6.26608 17.5582 4.14741 493.092 -77.2622 -490.507
lowerback -3.16102 3.76731 9.32241
upperback -2.61749 4.69521 2.34999
thorax -0.399987 2.19707 -2.60942
lowerneck -15.8174 -5.82694 -7.45679
upperneck 13.4965 -7.75921 8.66028
head 7.38121 -3.37423 3.17137
rclavicle 5.33364e-014 6.47044e-014
rhumerus -17.203 19.9534 -85.6301
rradius 75.3383
rwrist -6.55971
rhand -7.89624 -11.6879
rfingers 7.12502
rthumb 18.0087 -40.8741
lclavicle 5.33364e-014 6.47044e-014
lhumerus -55.4329 -2.68144 83.7955
lradius 53.2121
lwrist -0.142709
lhand -8.80187 3.31576
lfingers 7.12502
lthumb 17.1372 32.58
rfemur 8.06992 4.14614 33.513
rtibia 30.0588
rfoot -13.0808 3.43081
rtoes -2.34324
lfemur -42.2132 8.96308 -8.63323
ltibia 52.1859
lfoot 551.498 171.668
ltoes -6.52637
265
root -6.47287 17.5451 4.17462 494.122 -77.1835 -491.465
lowerback -3.57955 3.73396 9.35339
upperback -2.76592 4.60177 2.35044
thorax -0.328963 2.14558 -2.60829
lowerneck -15.663 -5.69707 -7.34741
upperneck 13.7635 -7.62408 8.56371
head 7.42141 -3.31514 3.1418
rclavicle -1.98412e-014 -1.98785e-014
rhumerus -19.2042 19.662 -86.1111
rradius 75.0359
rwrist -6.3981
rhand -7.96055 -11.627
rfingers 7.12502
rthumb 17.9468 -40.819
lclavicle -1.98412e-014 -1.98785e-014
lhumerus -54.9622 -2.62555 84.5371
lradius 53.5044
lwrist 0.0309592
lhand -9.05809 3.53981
lfingers 7.12502
lthumb 16.8905 32.8253
rfemur 7.2078 3.58744 32.6643
rtibia 32.3652
rfoot -11.29 4.72706
rtoes -2.31529
lfemur -38.8677 8.30934 -8.62809
ltibia 49.3903
lfoot 546.46 171.232
ltoes -6.86808
266
root -6.674 17.5327 4.20408 495.031 -77.1711 -492.326
lowerback -3.917 3.64177 9.33906
upperback -2.91438 4.44178 2.35741
thorax -0.314732 2.05945 -2.5858
lowerneck -15.5575 -5.54331 -7.19986
upperneck 14.065 -7.45739 8.4314
head 7.476 -3.24048 3.09714
rclavicle -4.67765e-015 -1.68967e-015
rhumerus -21.1926 19.3515 -86.5663
rradius 74.6865
rwrist -6.26168
rhand -8.01412 -11.5766
rfingers 7.12502
rthumb 17.8952 -40.7733
lclavicle -4.67765e-015 -1.68967e-015
lhumerus -54.4244 -2.48552 85.2931
lradius 53.8131
lwrist 0.26508
lhand -9.31408 3.79269
lfingers 7.12502
lthumb 16.6441 33.0991
rfemur 6.00837 2.93239 31.7083
rtibia 35.1284
rfoot -8.8151 5.9561
rtoes -1.77069
lfemur -35.8177 7.83526 -8.90222
ltibia 46.694
lfoot 541.784 171.493
ltoes -5.67151
